<?xml version="1.0" encoding="UTF-8"?>
<svg xmlns="http://www.w3.org/2000/svg" xmlns:xlink="http://www.w3.org/1999/xlink" width="300px" height="200px" viewBox="0 0 300 200" version="1.1">
<g id="surface1">
<path style=" stroke:none;fill-rule:nonzero;fill:rgb(90.196078%,90.196078%,90.196078%);fill-opacity:1;" d="M 190.988281 171.257812 L 25.75 171.257812 C 23.738281 171.257812 22.105469 169.292969 22.101562 166.867188 L 22.101562 51.035156 C 22.105469 48.609375 23.738281 46.644531 25.75 46.644531 L 190.988281 46.644531 C 193 46.644531 194.632812 48.609375 194.636719 51.035156 L 194.636719 166.867188 C 194.632812 169.292969 193 171.257812 190.988281 171.257812 Z M 190.988281 171.257812 "/>
<path style=" stroke:none;fill-rule:nonzero;fill:rgb(80%,80%,80%);fill-opacity:1;" d="M 201.289062 187.46875 L 15.449219 187.46875 L 15.449219 39.40625 C 15.453125 36.699219 17.277344 34.5 19.527344 34.5 L 197.210938 34.5 C 199.460938 34.5 201.285156 36.699219 201.289062 39.40625 Z M 16.308594 186.4375 L 200.429688 186.4375 L 200.429688 39.40625 C 200.425781 37.269531 198.988281 35.535156 197.210938 35.53125 L 19.527344 35.53125 C 17.75 35.535156 16.3125 37.269531 16.308594 39.40625 Z M 16.308594 186.4375 "/>
<path style=" stroke:none;fill-rule:nonzero;fill:rgb(90.196078%,90.196078%,90.196078%);fill-opacity:1;" d="M 110.085938 40.957031 C 110.085938 42.101562 109.316406 43.027344 108.367188 43.027344 C 107.421875 43.027344 106.652344 42.101562 106.652344 40.957031 C 106.652344 39.816406 107.421875 38.890625 108.367188 38.890625 C 109.316406 38.890625 110.085938 39.816406 110.085938 40.957031 Z M 110.085938 40.957031 "/>
<path style=" stroke:none;fill-rule:nonzero;fill:rgb(100%,100%,100%);fill-opacity:1;" d="M 149.785156 146.675781 L 66.953125 146.675781 C 64.9375 146.675781 63.308594 144.710938 63.304688 142.285156 L 63.304688 75.617188 C 63.308594 73.191406 64.9375 71.226562 66.953125 71.226562 L 149.785156 71.226562 C 151.800781 71.226562 153.429688 73.191406 153.433594 75.617188 L 153.433594 142.285156 C 153.429688 144.710938 151.800781 146.675781 149.785156 146.675781 Z M 149.785156 146.675781 "/>
<path style=" stroke:none;fill-rule:nonzero;fill:rgb(80%,80%,80%);fill-opacity:1;" d="M 80.578125 99.648438 C 78.683594 99.648438 77.144531 97.796875 77.144531 95.515625 C 77.144531 93.230469 78.683594 91.378906 80.578125 91.378906 C 82.476562 91.378906 84.011719 93.230469 84.011719 95.515625 C 84.011719 97.796875 82.476562 99.644531 80.578125 99.648438 Z M 80.578125 99.648438 "/>
<path style=" stroke:none;fill-rule:nonzero;fill:rgb(97.254902%,57.647059%,30.588235%);fill-opacity:1;" d="M 80.578125 113.085938 C 78.683594 113.085938 77.144531 111.234375 77.144531 108.949219 C 77.144531 106.667969 78.683594 104.816406 80.578125 104.816406 C 82.476562 104.816406 84.011719 106.667969 84.011719 108.949219 C 84.011719 111.234375 82.476562 113.082031 80.578125 113.085938 Z M 80.578125 113.085938 "/>
<path style=" stroke:none;fill-rule:nonzero;fill:rgb(97.254902%,57.647059%,30.588235%);fill-opacity:1;" d="M 80.578125 126.523438 C 78.683594 126.523438 77.144531 124.671875 77.144531 122.386719 C 77.144531 120.105469 78.683594 118.253906 80.578125 118.253906 C 82.476562 118.253906 84.011719 120.105469 84.011719 122.386719 C 84.011719 124.671875 82.476562 126.519531 80.578125 126.523438 Z M 80.578125 126.523438 "/>
<path style=" stroke:none;fill-rule:nonzero;fill:rgb(80%,80%,80%);fill-opacity:1;" d="M 96.886719 92.15625 C 95.347656 92.15625 94.097656 93.660156 94.097656 95.515625 C 94.097656 97.371094 95.347656 98.875 96.886719 98.875 L 136.800781 98.875 C 138.34375 98.875 139.59375 97.371094 139.59375 95.515625 C 139.59375 93.660156 138.34375 92.15625 136.800781 92.15625 Z M 96.886719 92.15625 "/>
<path style=" stroke:none;fill-rule:nonzero;fill:rgb(97.254902%,57.647059%,30.588235%);fill-opacity:1;" d="M 96.886719 105.59375 C 95.347656 105.59375 94.097656 107.097656 94.097656 108.949219 C 94.097656 110.804688 95.347656 112.308594 96.886719 112.308594 L 136.800781 112.308594 C 138.34375 112.308594 139.59375 110.804688 139.59375 108.949219 C 139.59375 107.097656 138.34375 105.59375 136.800781 105.59375 Z M 96.886719 105.59375 "/>
<path style=" stroke:none;fill-rule:nonzero;fill:rgb(97.254902%,57.647059%,30.588235%);fill-opacity:1;" d="M 96.886719 119.027344 C 95.347656 119.027344 94.097656 120.53125 94.097656 122.386719 C 94.097656 124.242188 95.347656 125.746094 96.886719 125.746094 L 136.800781 125.746094 C 138.34375 125.746094 139.59375 124.242188 139.59375 122.386719 C 139.59375 120.53125 138.34375 119.027344 136.800781 119.027344 Z M 96.886719 119.027344 "/>
<path style=" stroke:none;fill-rule:nonzero;fill:rgb(100%,72.156863%,72.156863%);fill-opacity:1;" d="M 284.671875 193.96875 L 279.410156 193.863281 L 277.25 169.375 L 285.015625 169.535156 Z M 284.671875 193.96875 "/>
<path style=" stroke:none;fill-rule:nonzero;fill:rgb(18.431373%,18.039216%,25.490196%);fill-opacity:1;" d="M 275.679688 191.976562 L 285.824219 192.179688 L 285.71875 199.875 L 269.183594 199.539062 C 269.242188 195.289062 272.152344 191.902344 275.679688 191.976562 Z M 275.679688 191.976562 "/>
<path style=" stroke:none;fill-rule:nonzero;fill:rgb(100%,72.156863%,72.156863%);fill-opacity:1;" d="M 232.464844 193.910156 L 227.585938 191.53125 L 232.878906 167.75 L 240.078125 171.257812 Z M 232.464844 193.910156 "/>
<path style=" stroke:none;fill-rule:nonzero;fill:rgb(18.431373%,18.039216%,25.490196%);fill-opacity:1;" d="M 224.667969 188.15625 L 234.074219 192.742188 L 231.675781 199.871094 L 216.347656 192.402344 C 217.671875 188.464844 221.394531 186.5625 224.667969 188.15625 Z M 224.667969 188.15625 "/>
<path style=" stroke:none;fill-rule:nonzero;fill:rgb(18.431373%,18.039216%,25.490196%);fill-opacity:1;" d="M 250.050781 102.285156 L 234.597656 151.382812 L 228.160156 185.492188 L 235.027344 189.625 L 266.359375 116.242188 L 277.945312 189.882812 L 284.8125 189.882812 C 284.8125 189.882812 287.953125 102.539062 283.378906 95.695312 Z M 250.050781 102.285156 "/>
<path style=" stroke:none;fill-rule:nonzero;fill:rgb(97.254902%,57.647059%,30.588235%);fill-opacity:1;" d="M 242.984375 141.480469 C 242.984375 149.523438 237.570312 156.039062 230.894531 156.039062 C 224.21875 156.039062 218.804688 149.523438 218.804688 141.480469 C 218.804688 133.441406 224.21875 126.921875 230.894531 126.921875 C 237.570312 126.921875 242.984375 133.441406 242.984375 141.480469 Z M 242.984375 141.480469 "/>
<path style=" stroke:none;fill-rule:nonzero;fill:rgb(100%,100%,100%);fill-opacity:1;" d="M 229.886719 147.917969 L 226.050781 141.976562 L 228.28125 139.886719 L 230.097656 142.699219 L 236.234375 134.898438 L 238.289062 137.238281 Z M 229.886719 147.917969 "/>
<path style=" stroke:none;fill-rule:nonzero;fill:rgb(18.431373%,18.039216%,25.490196%);fill-opacity:1;" d="M 271.722656 17.273438 C 271.722656 26.691406 265.382812 34.328125 257.558594 34.328125 C 249.738281 34.328125 243.398438 26.691406 243.398438 17.273438 C 243.398438 7.855469 249.738281 0.21875 257.558594 0.21875 C 265.382812 0.21875 271.722656 7.855469 271.722656 17.273438 Z M 271.722656 17.273438 "/>
<path style=" stroke:none;fill-rule:nonzero;fill:rgb(100%,72.156863%,72.156863%);fill-opacity:1;" d="M 237.792969 133.324219 C 239.015625 132.59375 239.90625 131.246094 240.222656 129.648438 C 240.542969 128.050781 240.257812 126.367188 239.441406 125.046875 L 250.1875 53.449219 L 240.160156 53.289062 L 232.699219 124.089844 C 230.910156 125.921875 230.542969 129.078125 231.839844 131.433594 C 233.140625 133.789062 235.699219 134.601562 237.792969 133.324219 Z M 237.792969 133.324219 "/>
<path style=" stroke:none;fill-rule:nonzero;fill:rgb(100%,72.156863%,72.156863%);fill-opacity:1;" d="M 299.359375 119.339844 C 300.128906 117.933594 300.324219 116.183594 299.890625 114.582031 C 299.460938 112.980469 298.449219 111.703125 297.144531 111.101562 L 277.957031 54.988281 C 277.007812 52.210938 275.089844 50.074219 272.714844 49.152344 C 270.339844 48.230469 267.746094 48.613281 265.625 50.199219 L 291.035156 114.675781 C 290.359375 117.335938 291.414062 120.195312 293.511719 121.371094 C 295.609375 122.542969 298.105469 121.679688 299.359375 119.339844 Z M 299.359375 119.339844 "/>
<path style=" stroke:none;fill-rule:nonzero;fill:rgb(100%,72.156863%,72.156863%);fill-opacity:1;" d="M 268.382812 23.699219 C 268.382812 30.710938 263.660156 36.390625 257.839844 36.390625 C 252.019531 36.390625 247.300781 30.710938 247.300781 23.699219 C 247.300781 16.6875 252.019531 11.007812 257.839844 11.007812 C 263.660156 11.007812 268.382812 16.6875 268.382812 23.699219 Z M 268.382812 23.699219 "/>
<path style=" stroke:none;fill-rule:nonzero;fill:rgb(80%,80%,80%);fill-opacity:1;" d="M 245.023438 43.769531 C 251.101562 40.722656 261.597656 37.707031 273.253906 44.273438 C 276.011719 45.824219 278.09375 48.714844 278.96875 52.226562 L 283.953125 72.3125 L 277.515625 80.066406 L 283.527344 96.085938 C 283.527344 96.085938 260.5625 112.882812 250.265625 102.546875 L 244.039062 75.929688 L 235.886719 73.347656 L 238.667969 53.445312 C 239.265625 49.117188 241.664062 45.464844 245.023438 43.769531 Z M 245.023438 43.769531 "/>
<path style=" stroke:none;fill-rule:nonzero;fill:rgb(18.431373%,18.039216%,25.490196%);fill-opacity:1;" d="M 247.980469 14.3125 C 252.097656 17.339844 256.738281 19.179688 261.542969 19.695312 L 260.113281 17.632812 C 261.15625 18.09375 262.25 18.355469 263.359375 18.40625 C 264.484375 18.445312 265.558594 17.839844 266.253906 16.773438 C 266.824219 15.667969 266.90625 14.292969 266.476562 13.097656 C 266.042969 11.921875 265.363281 10.902344 264.507812 10.132812 C 261.425781 7.195312 257.328125 6.316406 253.59375 7.78125 C 252.332031 8.238281 251.203125 9.109375 250.332031 10.300781 C 249.464844 11.519531 249.164062 13.183594 249.535156 14.726562 "/>
<path style=" stroke:none;fill-rule:nonzero;fill:rgb(18.431373%,18.039216%,25.490196%);fill-opacity:1;" d="M 246.007812 3.019531 C 245.839844 0.847656 243.628906 -0.488281 241.902344 0.167969 C 240.175781 0.824219 239.042969 2.917969 238.699219 5.058594 C 238.367188 6.878906 238.648438 8.785156 239.484375 10.355469 C 240.359375 11.921875 241.910156 12.730469 243.457031 12.425781 C 245.167969 11.988281 246.347656 9.980469 246.6875 7.917969 C 247.027344 5.855469 246.691406 3.726562 246.355469 1.664062 "/>
<path style=" stroke:none;fill-rule:nonzero;fill:rgb(18.431373%,18.039216%,25.490196%);fill-opacity:1;" d="M 275.195312 4.050781 C 275.023438 1.882812 272.816406 0.546875 271.085938 1.199219 C 269.359375 1.855469 268.226562 3.949219 267.882812 6.089844 C 267.550781 7.914062 267.832031 9.816406 268.667969 11.386719 C 269.542969 12.953125 271.097656 13.765625 272.644531 13.460938 C 274.351562 13.023438 275.535156 11.015625 275.871094 8.949219 C 276.210938 6.886719 275.875 4.761719 275.539062 2.699219 "/>
<path style=" stroke:none;fill-rule:nonzero;fill:rgb(24.705882%,23.921569%,33.72549%);fill-opacity:1;" d="M 204.507812 180.75 L 196.996094 180.75 L 196.996094 179.203125 C 196.996094 178.058594 196.226562 177.132812 195.277344 177.132812 L 186.265625 177.132812 C 185.316406 177.132812 184.550781 178.058594 184.550781 179.203125 L 184.550781 180.75 L 183.261719 180.75 L 183.261719 179.203125 C 183.261719 178.058594 182.492188 177.132812 181.546875 177.132812 L 172.53125 177.132812 C 171.585938 177.132812 170.816406 178.058594 170.816406 179.203125 L 170.816406 180.75 L 169.527344 180.75 L 169.527344 179.203125 C 169.527344 178.058594 168.757812 177.132812 167.8125 177.132812 L 158.796875 177.132812 C 157.851562 177.132812 157.082031 178.058594 157.082031 179.203125 L 157.082031 180.75 L 155.792969 180.75 L 155.792969 179.203125 C 155.792969 178.058594 155.023438 177.132812 154.078125 177.132812 L 145.0625 177.132812 C 144.117188 177.132812 143.347656 178.058594 143.347656 179.203125 L 143.347656 180.75 L 142.058594 180.75 L 142.058594 179.203125 C 142.058594 178.058594 141.292969 177.132812 140.34375 177.132812 L 131.332031 177.132812 C 130.382812 177.132812 129.613281 178.058594 129.613281 179.203125 L 129.613281 180.75 L 128.328125 180.75 L 128.328125 179.203125 C 128.328125 178.058594 127.558594 177.132812 126.609375 177.132812 L 117.597656 177.132812 C 116.648438 177.132812 115.878906 178.058594 115.878906 179.203125 L 115.878906 180.75 L 114.59375 180.75 L 114.59375 179.203125 C 114.59375 178.058594 113.824219 177.132812 112.875 177.132812 L 103.863281 177.132812 C 102.914062 177.132812 102.144531 178.058594 102.144531 179.203125 L 102.144531 180.75 L 100.859375 180.75 L 100.859375 179.203125 C 100.859375 178.058594 100.089844 177.132812 99.140625 177.132812 L 90.128906 177.132812 C 89.179688 177.132812 88.410156 178.058594 88.410156 179.203125 L 88.410156 180.75 L 87.125 180.75 L 87.125 179.203125 C 87.125 178.058594 86.355469 177.132812 85.40625 177.132812 L 76.394531 177.132812 C 75.445312 177.132812 74.679688 178.058594 74.679688 179.203125 L 74.679688 180.75 L 73.390625 180.75 L 73.390625 179.203125 C 73.390625 178.058594 72.621094 177.132812 71.671875 177.132812 L 62.660156 177.132812 C 61.710938 177.132812 60.945312 178.058594 60.945312 179.203125 L 60.945312 180.75 L 59.65625 180.75 L 59.65625 179.203125 C 59.65625 178.058594 58.886719 177.132812 57.941406 177.132812 L 48.925781 177.132812 C 47.980469 177.132812 47.210938 178.058594 47.210938 179.203125 L 47.210938 180.75 L 45.921875 180.75 L 45.921875 179.203125 C 45.921875 178.058594 45.152344 177.132812 44.207031 177.132812 L 35.191406 177.132812 C 34.246094 177.132812 33.476562 178.058594 33.476562 179.203125 L 33.476562 180.75 L 32.1875 180.75 L 32.1875 179.203125 C 32.1875 178.058594 31.421875 177.132812 30.472656 177.132812 L 21.460938 177.132812 C 20.511719 177.132812 19.742188 178.058594 19.742188 179.203125 L 19.742188 180.75 L 12.230469 180.75 C 5.476562 180.75 0 187.347656 0 195.480469 C 0 197.90625 1.632812 199.871094 3.648438 199.871094 L 213.089844 199.871094 C 215.105469 199.871094 216.738281 197.90625 216.738281 195.480469 C 216.738281 187.347656 211.261719 180.75 204.507812 180.75 Z M 204.507812 180.75 "/>
</g>
</svg>
