<?xml version="1.0" encoding="UTF-8"?>
<svg xmlns="http://www.w3.org/2000/svg" xmlns:xlink="http://www.w3.org/1999/xlink" width="300px" height="200px" viewBox="0 0 300 200" version="1.1">
<g id="surface1">
<path style=" stroke:none;fill-rule:nonzero;fill:rgb(100%,71.372549%,71.372549%);fill-opacity:1;" d="M 190.46875 111.160156 C 192.652344 110.703125 194.066406 108.574219 193.644531 106.375 C 193.601562 106.144531 193.535156 105.914062 193.449219 105.691406 L 204.351562 96.273438 L 197.222656 94.253906 L 187.964844 103.507812 C 185.9375 104.476562 185.066406 106.890625 186 108.933594 C 186.789062 110.632812 188.644531 111.554688 190.46875 111.160156 Z M 190.46875 111.160156 "/>
<path style=" stroke:none;fill-rule:nonzero;fill:rgb(94.901961%,94.901961%,94.901961%);fill-opacity:1;" d="M 261.261719 177.960938 L 261.660156 169.03125 C 265.789062 166.816406 270.398438 165.648438 275.082031 165.625 C 268.636719 170.90625 269.441406 181.089844 265.070312 188.195312 C 262.273438 192.660156 257.605469 195.613281 252.378906 196.210938 L 246.984375 199.523438 C 245.484375 191.152344 247.71875 182.542969 253.097656 175.964844 C 254.605469 174.15625 256.335938 172.546875 258.246094 171.167969 C 259.539062 174.585938 261.261719 177.960938 261.261719 177.960938 Z M 261.261719 177.960938 "/>
<path style=" stroke:none;fill-rule:nonzero;fill:rgb(100%,71.372549%,71.372549%);fill-opacity:1;" d="M 247.363281 194.925781 L 242.480469 194.925781 L 240.15625 176.042969 L 247.363281 176.042969 Z M 247.363281 194.925781 "/>
<path style=" stroke:none;fill-rule:nonzero;fill:rgb(18.431373%,18.039216%,25.490196%);fill-opacity:1;" d="M 248.609375 199.671875 L 232.859375 199.671875 L 232.859375 199.472656 C 232.859375 196.078125 235.605469 193.328125 238.988281 193.328125 L 241.867188 191.140625 L 247.234375 193.328125 L 248.609375 193.328125 Z M 248.609375 199.671875 "/>
<path style=" stroke:none;fill-rule:nonzero;fill:rgb(100%,71.372549%,71.372549%);fill-opacity:1;" d="M 224.671875 194.925781 L 219.785156 194.925781 L 217.460938 176.042969 L 224.671875 176.042969 Z M 224.671875 194.925781 "/>
<path style=" stroke:none;fill-rule:nonzero;fill:rgb(18.431373%,18.039216%,25.490196%);fill-opacity:1;" d="M 225.917969 199.671875 L 210.164062 199.671875 L 210.164062 199.472656 C 210.167969 196.078125 212.910156 193.328125 216.296875 193.328125 L 219.171875 191.140625 L 224.542969 193.328125 L 225.917969 193.328125 Z M 225.917969 199.671875 "/>
<path style=" stroke:none;fill-rule:nonzero;fill:rgb(18.431373%,18.039216%,25.490196%);fill-opacity:1;" d="M 222.554688 91.683594 L 254.328125 92.480469 C 260.363281 95.765625 260.453125 102.875 258.476562 111.316406 C 258.476562 111.316406 259.144531 116.332031 257.808594 117.671875 C 256.472656 119.007812 255.808594 119.007812 256.472656 121.351562 C 257.140625 123.691406 253.617188 127.515625 254.042969 127.945312 C 254.472656 128.375 255.472656 130.71875 255.472656 130.71875 L 252.136719 149.785156 C 252.136719 149.785156 249.800781 182.898438 249.132812 183.566406 C 248.464844 184.238281 247.796875 183.566406 248.464844 185.238281 C 249.132812 186.914062 249.800781 186.242188 249.132812 186.914062 C 248.542969 187.550781 247.984375 188.222656 247.464844 188.917969 L 239.394531 188.917969 C 239.394531 188.917969 238.785156 185.574219 238.785156 185.238281 C 238.785156 184.90625 238.121094 182.898438 238.121094 182.5625 C 238.121094 182.230469 238.710938 181.636719 238.710938 181.636719 C 238.914062 180.957031 239.050781 180.261719 239.121094 179.554688 C 239.121094 178.886719 241.125 153.128906 241.125 153.128906 L 237.117188 119.679688 L 227.441406 152.460938 C 227.441406 152.460938 227.441406 181.226562 226.773438 181.894531 C 226.105469 182.5625 226.105469 182.230469 226.4375 183.566406 C 226.773438 184.90625 228.109375 184.570312 227.105469 185.574219 C 226.105469 186.578125 225.773438 184.90625 226.105469 186.578125 L 226.4375 188.25 L 216.425781 188.394531 C 216.425781 188.394531 215.09375 185.574219 215.761719 184.570312 C 216.425781 183.566406 216.386719 183.839844 215.574219 182.199219 C 214.757812 180.558594 214.425781 180.222656 214.757812 179.886719 C 215.09375 179.554688 215.09375 177.773438 215.09375 177.773438 L 216.761719 145.769531 C 216.761719 145.769531 217.09375 111.984375 217.09375 110.980469 C 217.121094 110.464844 217.023438 109.949219 216.816406 109.476562 L 216.816406 108.113281 L 218.097656 103.289062 Z M 222.554688 91.683594 "/>
<path style=" stroke:none;fill-rule:nonzero;fill:rgb(90.196078%,90.196078%,90.196078%);fill-opacity:1;" d="M 190.101562 100.292969 L 195.46875 104.632812 L 224.742188 81.890625 L 223.011719 42.308594 C 219.683594 44.972656 217.5625 48.863281 217.113281 53.105469 L 212.097656 75.46875 Z M 190.101562 100.292969 "/>
<path style=" stroke:none;fill-rule:nonzero;fill:rgb(90.196078%,90.196078%,90.196078%);fill-opacity:1;" d="M 217.8125 101.683594 C 228.175781 103.007812 237.722656 98.988281 246.738281 95.953125 C 250.8125 94.582031 254.914062 96.011719 258.691406 93.695312 C 257.058594 77.5625 258.644531 59.386719 262.117188 40.019531 C 262.523438 37.753906 261.191406 35.53125 259.003906 34.832031 L 247.816406 31.613281 L 244.371094 27.804688 L 235.476562 30.070312 L 232.363281 35.710938 L 221.664062 42.957031 C 220.386719 43.820312 219.734375 45.351562 220 46.875 C 223.210938 65.085938 222.46875 83.78125 217.8125 101.683594 Z M 217.8125 101.683594 "/>
<path style=" stroke:none;fill-rule:nonzero;fill:rgb(100%,71.372549%,71.372549%);fill-opacity:1;" d="M 250.882812 106.675781 C 252.859375 105.636719 253.640625 103.203125 252.640625 101.207031 C 252.53125 100.996094 252.40625 100.792969 252.261719 100.601562 L 260.1875 88.558594 L 252.78125 88.5625 L 246.390625 100 C 244.707031 101.484375 244.523438 104.050781 245.980469 105.757812 C 247.199219 107.175781 249.234375 107.554688 250.882812 106.675781 Z M 250.882812 106.675781 "/>
<path style=" stroke:none;fill-rule:nonzero;fill:rgb(90.196078%,90.196078%,90.196078%);fill-opacity:1;" d="M 248.644531 95.433594 L 253.496094 101.683594 L 270.46875 76.335938 L 269 50.582031 C 268.621094 43.917969 264.863281 37.910156 259.039062 34.667969 L 259.382812 74.25 Z M 248.644531 95.433594 "/>
<path style=" stroke:none;fill-rule:nonzero;fill:rgb(100%,71.372549%,71.372549%);fill-opacity:1;" d="M 247.3125 15.453125 C 247.3125 21.460938 242.453125 26.332031 236.457031 26.332031 C 230.460938 26.332031 225.601562 21.460938 225.601562 15.453125 C 225.601562 9.441406 230.460938 4.570312 236.457031 4.570312 C 242.453125 4.570312 247.3125 9.441406 247.3125 15.453125 Z M 247.3125 15.453125 "/>
<path style=" stroke:none;fill-rule:nonzero;fill:rgb(18.431373%,18.039216%,25.490196%);fill-opacity:1;" d="M 229.542969 9.066406 C 229.960938 9.070312 230.378906 9.125 230.785156 9.230469 C 231.589844 9.421875 232.402344 9.558594 233.222656 9.640625 C 238.394531 10.128906 242.566406 14.089844 243.332031 19.238281 C 243.960938 18.6875 245.398438 17.671875 246.574219 18.617188 C 246.59375 18.628906 246.601562 18.636719 246.644531 18.617188 C 247.425781 18.246094 248.8125 13.675781 248.855469 9.648438 C 248.875 7.511719 248.539062 4.78125 246.816406 3.917969 L 246.726562 3.871094 L 246.703125 3.773438 C 246.585938 3.292969 245.300781 2.472656 243.0625 1.835938 C 238.996094 0.671875 232.9375 -1.585938 229.527344 1.738281 C 229.265625 2.863281 228.425781 5.261719 227.578125 5.535156 C 226.640625 5.835938 225.828125 6.09375 225.699219 7.25 C 225.59375 8.894531 225.601562 10.542969 225.722656 12.1875 C 226.039062 11.183594 226.664062 10.300781 227.507812 9.671875 C 228.109375 9.265625 228.820312 9.054688 229.542969 9.066406 Z M 229.542969 9.066406 "/>
<path style=" stroke:none;fill-rule:nonzero;fill:rgb(80%,80%,80%);fill-opacity:1;" d="M 299.886719 199.742188 C 299.886719 199.851562 299.84375 199.957031 299.765625 200.035156 C 299.6875 200.109375 299.582031 200.15625 299.472656 200.152344 L 0.414062 200.152344 C 0.183594 200.152344 0 199.96875 0 199.742188 C 0 199.511719 0.183594 199.328125 0.414062 199.328125 L 299.472656 199.328125 C 299.582031 199.328125 299.6875 199.371094 299.765625 199.449219 C 299.84375 199.527344 299.886719 199.632812 299.886719 199.742188 Z M 299.886719 199.742188 "/>
<path style=" stroke:none;fill-rule:nonzero;fill:rgb(90.196078%,90.196078%,90.196078%);fill-opacity:1;" d="M 123.769531 35.113281 L 83.019531 44.300781 C 80.746094 44.816406 79.320312 47.078125 79.828125 49.359375 L 91 99.136719 L 138.878906 88.339844 C 139.269531 88.253906 139.632812 88.054688 139.914062 87.769531 L 128.8125 38.3125 C 128.300781 36.035156 126.042969 34.601562 123.769531 35.113281 Z M 123.769531 35.113281 "/>
<path style=" stroke:none;fill-rule:nonzero;fill:rgb(100%,100%,100%);fill-opacity:1;" d="M 108.964844 41.964844 L 86.636719 47.003906 C 84.566406 47.472656 83.265625 49.53125 83.726562 51.605469 L 94.234375 98.410156 L 136.753906 88.820312 L 129.101562 54.734375 C 127.050781 45.644531 118.042969 39.929688 108.964844 41.964844 Z M 108.964844 41.964844 "/>
<path style=" stroke:none;fill-rule:nonzero;fill:rgb(89.411765%,89.411765%,89.411765%);fill-opacity:1;" d="M 128.578125 86.296875 L 100.542969 92.617188 C 100.21875 92.691406 99.953125 92.933594 99.855469 93.253906 C 99.753906 93.574219 99.832031 93.925781 100.058594 94.171875 C 100.285156 94.417969 100.628906 94.523438 100.953125 94.449219 L 128.988281 88.128906 C 129.316406 88.054688 129.578125 87.8125 129.679688 87.492188 C 129.777344 87.171875 129.699219 86.820312 129.472656 86.574219 C 129.246094 86.328125 128.902344 86.222656 128.578125 86.296875 Z M 128.578125 86.296875 "/>
<path style=" stroke:none;fill-rule:nonzero;fill:rgb(89.411765%,89.411765%,89.411765%);fill-opacity:1;" d="M 127.765625 82.675781 L 99.730469 88.996094 C 99.226562 89.109375 98.910156 89.613281 99.023438 90.121094 C 99.136719 90.625 99.636719 90.945312 100.140625 90.828125 L 128.175781 84.507812 C 128.679688 84.394531 128.996094 83.890625 128.882812 83.386719 C 128.769531 82.878906 128.269531 82.5625 127.765625 82.675781 Z M 127.765625 82.675781 "/>
<path style=" stroke:none;fill-rule:nonzero;fill:rgb(89.411765%,89.411765%,89.411765%);fill-opacity:1;" d="M 111.070312 82.636719 L 98.917969 85.375 C 98.414062 85.488281 98.097656 85.992188 98.210938 86.5 C 98.324219 87.003906 98.824219 87.320312 99.328125 87.207031 L 111.480469 84.46875 C 111.808594 84.394531 112.070312 84.152344 112.171875 83.832031 C 112.273438 83.511719 112.195312 83.160156 111.964844 82.914062 C 111.738281 82.667969 111.398438 82.5625 111.070312 82.636719 Z M 111.070312 82.636719 "/>
<path style=" stroke:none;fill-rule:nonzero;fill:rgb(89.411765%,89.411765%,89.411765%);fill-opacity:1;" d="M 125.25 71.472656 L 97.214844 77.792969 C 96.710938 77.90625 96.394531 78.410156 96.507812 78.914062 C 96.621094 79.421875 97.121094 79.738281 97.628906 79.625 L 125.660156 73.304688 C 126.164062 73.191406 126.484375 72.6875 126.371094 72.179688 C 126.253906 71.675781 125.753906 71.355469 125.25 71.472656 Z M 125.25 71.472656 "/>
<path style=" stroke:none;fill-rule:nonzero;fill:rgb(89.411765%,89.411765%,89.411765%);fill-opacity:1;" d="M 124.4375 67.851562 L 96.402344 74.171875 C 96.078125 74.246094 95.8125 74.488281 95.714844 74.808594 C 95.613281 75.128906 95.691406 75.476562 95.917969 75.726562 C 96.144531 75.972656 96.488281 76.078125 96.816406 76.003906 L 124.847656 69.683594 C 125.351562 69.570312 125.671875 69.066406 125.554688 68.558594 C 125.441406 68.054688 124.941406 67.734375 124.4375 67.851562 Z M 124.4375 67.851562 "/>
<path style=" stroke:none;fill-rule:nonzero;fill:rgb(89.411765%,89.411765%,89.411765%);fill-opacity:1;" d="M 107.742188 67.808594 L 95.589844 70.550781 C 95.085938 70.664062 94.769531 71.167969 94.882812 71.671875 C 94.996094 72.179688 95.496094 72.496094 96.003906 72.382812 L 108.152344 69.644531 C 108.660156 69.527344 108.976562 69.027344 108.863281 68.519531 C 108.75 68.015625 108.246094 67.695312 107.742188 67.808594 Z M 107.742188 67.808594 "/>
<path style=" stroke:none;fill-rule:nonzero;fill:rgb(90.196078%,90.196078%,90.196078%);fill-opacity:1;" d="M 121.921875 56.644531 L 93.886719 62.964844 C 93.382812 63.078125 93.066406 63.582031 93.179688 64.089844 C 93.292969 64.59375 93.792969 64.914062 94.300781 64.800781 L 122.332031 58.476562 C 122.835938 58.363281 123.15625 57.859375 123.042969 57.355469 C 122.925781 56.847656 122.425781 56.53125 121.921875 56.644531 Z M 121.921875 56.644531 "/>
<path style=" stroke:none;fill-rule:nonzero;fill:rgb(90.196078%,90.196078%,90.196078%);fill-opacity:1;" d="M 121.109375 53.023438 L 93.074219 59.34375 C 92.570312 59.460938 92.253906 59.960938 92.367188 60.46875 C 92.480469 60.976562 92.980469 61.292969 93.488281 61.179688 L 121.519531 54.859375 C 122.023438 54.742188 122.34375 54.242188 122.230469 53.734375 C 122.113281 53.226562 121.613281 52.910156 121.109375 53.023438 Z M 121.109375 53.023438 "/>
<path style=" stroke:none;fill-rule:nonzero;fill:rgb(90.196078%,90.196078%,90.196078%);fill-opacity:1;" d="M 104.414062 52.984375 L 92.261719 55.722656 C 91.757812 55.835938 91.441406 56.339844 91.554688 56.847656 C 91.667969 57.351562 92.167969 57.671875 92.675781 57.558594 L 104.824219 54.816406 C 105.332031 54.703125 105.648438 54.199219 105.535156 53.695312 C 105.421875 53.1875 104.917969 52.871094 104.414062 52.984375 Z M 104.414062 52.984375 "/>
<path style=" stroke:none;fill-rule:nonzero;fill:rgb(24.705882%,23.921569%,33.72549%);fill-opacity:1;" d="M 42.476562 92.867188 C 41.921875 92.871094 41.476562 93.320312 41.472656 93.875 L 41.472656 197.710938 C 41.476562 198.261719 41.921875 198.710938 42.476562 198.714844 L 172.363281 198.714844 C 172.917969 198.710938 173.367188 198.261719 173.367188 197.710938 L 173.367188 110.542969 C 173.367188 109.988281 172.917969 109.539062 172.363281 109.535156 L 97.816406 109.535156 C 97.058594 109.539062 96.332031 109.253906 95.769531 108.746094 L 79.011719 93.480469 C 78.578125 93.085938 78.015625 92.867188 77.429688 92.867188 Z M 42.476562 92.867188 "/>
<path style=" stroke:none;fill-rule:nonzero;fill:rgb(90.196078%,90.196078%,90.196078%);fill-opacity:1;" d="M 197.488281 65.710938 L 127.9375 35.742188 C 124.054688 34.074219 119.558594 35.871094 117.886719 39.757812 L 81.441406 124.722656 L 163.15625 159.933594 C 163.828125 160.226562 164.566406 160.316406 165.289062 160.199219 L 201.496094 75.785156 C 203.15625 71.894531 201.367188 67.386719 197.488281 65.710938 Z M 197.488281 65.710938 "/>
<path style=" stroke:none;fill-rule:nonzero;fill:rgb(100%,100%,100%);fill-opacity:1;" d="M 168.488281 59.984375 L 130.375 43.5625 C 126.839844 42.042969 122.746094 43.675781 121.222656 47.214844 L 86.957031 127.097656 L 159.53125 158.371094 L 184.484375 100.199219 C 191.125 84.664062 183.972656 66.675781 168.488281 59.984375 Z M 168.488281 59.984375 "/>
<path style=" stroke:none;fill-rule:nonzero;fill:rgb(89.411765%,89.411765%,89.411765%);fill-opacity:1;" d="M 150.210938 145.949219 L 102.363281 125.332031 C 101.808594 125.089844 101.164062 125.167969 100.675781 125.53125 C 100.191406 125.894531 99.933594 126.492188 100.007812 127.09375 C 100.078125 127.699219 100.464844 128.21875 101.023438 128.457031 L 148.871094 149.074219 C 149.429688 149.316406 150.070312 149.242188 150.558594 148.878906 C 151.046875 148.515625 151.300781 147.917969 151.230469 147.3125 C 151.15625 146.710938 150.769531 146.1875 150.210938 145.949219 Z M 150.210938 145.949219 "/>
<path style=" stroke:none;fill-rule:nonzero;fill:rgb(89.411765%,89.411765%,89.411765%);fill-opacity:1;" d="M 152.863281 139.769531 L 105.015625 119.148438 C 104.15625 118.777344 103.15625 119.179688 102.785156 120.042969 C 102.414062 120.90625 102.8125 121.90625 103.675781 122.28125 L 151.519531 142.898438 C 152.382812 143.269531 153.382812 142.871094 153.753906 142.003906 C 154.125 141.140625 153.726562 140.140625 152.863281 139.769531 Z M 152.863281 139.769531 "/>
<path style=" stroke:none;fill-rule:nonzero;fill:rgb(89.411765%,89.411765%,89.411765%);fill-opacity:1;" d="M 128.40625 121.910156 L 107.667969 112.972656 C 106.804688 112.597656 105.804688 112.996094 105.4375 113.863281 C 105.066406 114.726562 105.464844 115.726562 106.324219 116.097656 L 127.066406 125.035156 C 127.929688 125.40625 128.925781 125.007812 129.296875 124.144531 C 129.667969 123.28125 129.269531 122.277344 128.40625 121.910156 Z M 128.40625 121.910156 "/>
<path style=" stroke:none;fill-rule:nonzero;fill:rgb(89.411765%,89.411765%,89.411765%);fill-opacity:1;" d="M 161.066406 120.644531 L 113.21875 100.027344 C 112.355469 99.65625 111.359375 100.054688 110.988281 100.917969 C 110.617188 101.78125 111.015625 102.785156 111.878906 103.15625 L 159.722656 123.773438 C 160.28125 124.015625 160.925781 123.9375 161.414062 123.574219 C 161.898438 123.210938 162.15625 122.613281 162.085938 122.007812 C 162.011719 121.40625 161.625 120.882812 161.066406 120.644531 Z M 161.066406 120.644531 "/>
<path style=" stroke:none;fill-rule:nonzero;fill:rgb(89.411765%,89.411765%,89.411765%);fill-opacity:1;" d="M 163.714844 114.464844 L 115.871094 93.847656 C 115.3125 93.605469 114.667969 93.683594 114.183594 94.046875 C 113.695312 94.410156 113.4375 95.003906 113.511719 95.609375 C 113.582031 96.214844 113.96875 96.734375 114.527344 96.972656 L 162.375 117.589844 C 162.933594 117.832031 163.574219 117.757812 164.0625 117.394531 C 164.550781 117.03125 164.804688 116.433594 164.734375 115.828125 C 164.664062 115.226562 164.273438 114.703125 163.714844 114.464844 Z M 163.714844 114.464844 "/>
<path style=" stroke:none;fill-rule:nonzero;fill:rgb(89.411765%,89.411765%,89.411765%);fill-opacity:1;" d="M 139.261719 96.601562 L 118.519531 87.664062 C 117.660156 87.292969 116.660156 87.695312 116.289062 88.558594 C 115.917969 89.421875 116.316406 90.421875 117.179688 90.792969 L 137.917969 99.730469 C 138.78125 100.105469 139.78125 99.703125 140.152344 98.839844 C 140.523438 97.976562 140.125 96.972656 139.261719 96.601562 Z M 139.261719 96.601562 "/>
<path style=" stroke:none;fill-rule:nonzero;fill:rgb(18.431373%,21.176471%,51.764706%);fill-opacity:1;" d="M 171.921875 95.339844 L 124.074219 74.722656 C 123.210938 74.351562 122.214844 74.75 121.84375 75.613281 C 121.472656 76.476562 121.871094 77.476562 122.730469 77.851562 L 170.578125 98.46875 C 171.441406 98.839844 172.441406 98.441406 172.808594 97.574219 C 173.179688 96.710938 172.78125 95.710938 171.921875 95.339844 Z M 171.921875 95.339844 "/>
<path style=" stroke:none;fill-rule:nonzero;fill:rgb(18.431373%,21.176471%,51.764706%);fill-opacity:1;" d="M 174.570312 89.160156 L 126.722656 68.542969 C 125.863281 68.171875 124.863281 68.570312 124.492188 69.433594 C 124.121094 70.296875 124.519531 71.300781 125.382812 71.671875 L 173.226562 92.289062 C 173.785156 92.53125 174.429688 92.457031 174.917969 92.09375 C 175.40625 91.726562 175.664062 91.128906 175.589844 90.523438 C 175.519531 89.917969 175.128906 89.398438 174.570312 89.160156 Z M 174.570312 89.160156 "/>
<path style=" stroke:none;fill-rule:nonzero;fill:rgb(18.431373%,21.176471%,51.764706%);fill-opacity:1;" d="M 150.117188 71.296875 L 129.375 62.359375 C 128.511719 61.988281 127.515625 62.386719 127.144531 63.253906 C 126.773438 64.117188 127.171875 65.117188 128.03125 65.488281 L 148.773438 74.425781 C 149.636719 74.796875 150.636719 74.398438 151.007812 73.535156 C 151.378906 72.671875 150.980469 71.667969 150.117188 71.296875 Z M 150.117188 71.296875 "/>
<path style=" stroke:none;fill-rule:nonzero;fill:rgb(90.196078%,90.196078%,90.196078%);fill-opacity:1;" d="M 98.480469 96.570312 L 57.730469 105.757812 C 55.457031 106.273438 54.03125 108.535156 54.539062 110.816406 L 65.710938 160.59375 L 113.589844 149.800781 C 113.980469 149.710938 114.34375 149.511719 114.625 149.226562 L 103.523438 99.769531 C 103.011719 97.492188 100.753906 96.058594 98.480469 96.570312 Z M 98.480469 96.570312 "/>
<path style=" stroke:none;fill-rule:nonzero;fill:rgb(100%,100%,100%);fill-opacity:1;" d="M 83.679688 103.425781 L 61.347656 108.460938 C 59.277344 108.929688 57.976562 110.988281 58.4375 113.066406 L 68.945312 159.867188 L 111.464844 150.277344 L 103.816406 116.195312 C 101.761719 107.101562 92.753906 101.390625 83.679688 103.425781 Z M 83.679688 103.425781 "/>
<path style=" stroke:none;fill-rule:nonzero;fill:rgb(89.411765%,89.411765%,89.411765%);fill-opacity:1;" d="M 103.289062 147.753906 L 75.253906 154.078125 C 74.929688 154.148438 74.664062 154.390625 74.566406 154.714844 C 74.464844 155.035156 74.542969 155.382812 74.769531 155.628906 C 75 155.875 75.339844 155.984375 75.667969 155.910156 L 103.699219 149.585938 C 104.027344 149.515625 104.289062 149.273438 104.390625 148.949219 C 104.488281 148.628906 104.410156 148.28125 104.183594 148.035156 C 103.957031 147.785156 103.613281 147.679688 103.289062 147.753906 Z M 103.289062 147.753906 "/>
<path style=" stroke:none;fill-rule:nonzero;fill:rgb(89.411765%,89.411765%,89.411765%);fill-opacity:1;" d="M 102.476562 144.132812 L 74.441406 150.453125 C 73.9375 150.570312 73.621094 151.070312 73.734375 151.578125 C 73.847656 152.085938 74.347656 152.402344 74.855469 152.289062 L 102.886719 145.96875 C 103.390625 145.851562 103.710938 145.351562 103.59375 144.84375 C 103.480469 144.335938 102.980469 144.019531 102.476562 144.132812 Z M 102.476562 144.132812 "/>
<path style=" stroke:none;fill-rule:nonzero;fill:rgb(89.411765%,89.411765%,89.411765%);fill-opacity:1;" d="M 85.78125 144.09375 L 73.628906 146.835938 C 73.125 146.949219 72.808594 147.449219 72.921875 147.957031 C 73.035156 148.460938 73.535156 148.78125 74.039062 148.667969 L 86.191406 145.925781 C 86.519531 145.851562 86.785156 145.609375 86.882812 145.289062 C 86.984375 144.96875 86.90625 144.621094 86.675781 144.371094 C 86.449219 144.125 86.109375 144.019531 85.78125 144.09375 Z M 85.78125 144.09375 "/>
<path style=" stroke:none;fill-rule:nonzero;fill:rgb(89.411765%,89.411765%,89.411765%);fill-opacity:1;" d="M 99.960938 132.929688 L 71.925781 139.25 C 71.421875 139.363281 71.105469 139.867188 71.21875 140.375 C 71.332031 140.878906 71.832031 141.199219 72.339844 141.082031 L 100.371094 134.761719 C 100.875 134.648438 101.195312 134.144531 101.082031 133.640625 C 100.96875 133.132812 100.464844 132.816406 99.960938 132.929688 Z M 99.960938 132.929688 "/>
<path style=" stroke:none;fill-rule:nonzero;fill:rgb(89.411765%,89.411765%,89.411765%);fill-opacity:1;" d="M 99.148438 129.308594 L 71.113281 135.628906 C 70.789062 135.703125 70.523438 135.945312 70.425781 136.265625 C 70.324219 136.585938 70.402344 136.9375 70.628906 137.183594 C 70.859375 137.429688 71.199219 137.535156 71.527344 137.460938 L 99.558594 131.140625 C 100.0625 131.027344 100.382812 130.523438 100.269531 130.019531 C 100.152344 129.511719 99.652344 129.195312 99.148438 129.308594 Z M 99.148438 129.308594 "/>
<path style=" stroke:none;fill-rule:nonzero;fill:rgb(89.411765%,89.411765%,89.411765%);fill-opacity:1;" d="M 82.453125 129.269531 L 70.300781 132.007812 C 69.796875 132.121094 69.480469 132.625 69.59375 133.132812 C 69.707031 133.636719 70.207031 133.957031 70.714844 133.839844 L 82.863281 131.101562 C 83.371094 130.988281 83.6875 130.484375 83.574219 129.980469 C 83.460938 129.472656 82.957031 129.152344 82.453125 129.269531 Z M 82.453125 129.269531 "/>
<path style=" stroke:none;fill-rule:nonzero;fill:rgb(90.196078%,90.196078%,90.196078%);fill-opacity:1;" d="M 96.632812 118.101562 L 68.597656 124.425781 C 68.09375 124.539062 67.777344 125.039062 67.890625 125.546875 C 68.003906 126.054688 68.507812 126.371094 69.011719 126.257812 L 97.042969 119.9375 C 97.550781 119.824219 97.867188 119.320312 97.753906 118.8125 C 97.640625 118.308594 97.136719 117.988281 96.632812 118.101562 Z M 96.632812 118.101562 "/>
<path style=" stroke:none;fill-rule:nonzero;fill:rgb(90.196078%,90.196078%,90.196078%);fill-opacity:1;" d="M 95.820312 114.484375 L 67.785156 120.804688 C 67.28125 120.917969 66.964844 121.421875 67.078125 121.925781 C 67.191406 122.433594 67.691406 122.75 68.199219 122.636719 L 96.230469 116.316406 C 96.738281 116.203125 97.054688 115.699219 96.941406 115.191406 C 96.828125 114.6875 96.324219 114.367188 95.820312 114.484375 Z M 95.820312 114.484375 "/>
<path style=" stroke:none;fill-rule:nonzero;fill:rgb(90.196078%,90.196078%,90.196078%);fill-opacity:1;" d="M 79.125 114.441406 L 66.972656 117.183594 C 66.46875 117.296875 66.152344 117.796875 66.265625 118.304688 C 66.378906 118.8125 66.878906 119.128906 67.386719 119.015625 L 79.539062 116.273438 C 80.042969 116.160156 80.359375 115.660156 80.246094 115.152344 C 80.132812 114.644531 79.628906 114.328125 79.125 114.441406 Z M 79.125 114.441406 "/>
<path style=" stroke:none;fill-rule:nonzero;fill:rgb(24.705882%,23.921569%,33.72549%);fill-opacity:1;" d="M 41.617188 120.140625 C 41.0625 120.140625 40.613281 120.589844 40.613281 121.144531 C 40.613281 121.183594 40.644531 198.515625 40.644531 198.515625 C 40.699219 199.023438 41.128906 199.410156 41.640625 199.40625 L 181.167969 199.40625 C 181.679688 199.410156 182.105469 199.023438 182.164062 198.515625 L 190.847656 121.257812 C 190.878906 120.972656 190.789062 120.691406 190.601562 120.476562 C 190.410156 120.261719 190.140625 120.140625 189.855469 120.140625 Z M 41.617188 120.140625 "/>
<path style=" stroke:none;fill-rule:nonzero;fill:rgb(18.431373%,21.176471%,51.764706%);fill-opacity:1;" d="M 51.460938 124.421875 C 48.515625 124.433594 46.121094 126.808594 46.089844 129.761719 L 46.261719 189.695312 C 46.25 191.132812 46.8125 192.511719 47.820312 193.53125 C 48.828125 194.554688 50.203125 195.125 51.636719 195.125 L 140.207031 195.125 C 161.242188 195.140625 178.921875 179.304688 181.261719 158.351562 L 184.402344 130.410156 C 184.574219 128.886719 184.089844 127.363281 183.070312 126.21875 C 182.050781 125.078125 180.59375 124.421875 179.066406 124.421875 Z M 187.191406 124.421875 L 187.175781 124.074219 L 187.191406 124.074219 Z M 187.191406 124.421875 "/>
<path style=" stroke:none;fill-rule:nonzero;fill:rgb(89.411765%,89.411765%,89.411765%);fill-opacity:1;" d="M 90.152344 169.324219 L 55.839844 169.324219 C 55.101562 169.324219 54.503906 168.726562 54.503906 167.984375 C 54.503906 167.246094 55.101562 166.644531 55.839844 166.644531 L 90.152344 166.644531 C 91.875 166.621094 91.890625 169.347656 90.152344 169.324219 Z M 90.152344 169.324219 "/>
<path style=" stroke:none;fill-rule:nonzero;fill:rgb(89.411765%,89.411765%,89.411765%);fill-opacity:1;" d="M 136.371094 176.335938 L 55.839844 176.335938 C 55.101562 176.335938 54.503906 175.734375 54.503906 174.996094 C 54.503906 174.253906 55.101562 173.652344 55.839844 173.652344 L 136.371094 173.652344 C 138.097656 173.628906 138.113281 176.359375 136.371094 176.335938 Z M 136.371094 176.335938 "/>
</g>
</svg>
