<?xml version="1.0" encoding="UTF-8"?>
<svg xmlns="http://www.w3.org/2000/svg" xmlns:xlink="http://www.w3.org/1999/xlink" width="300px" height="200px" viewBox="0 0 300 200" version="1.1">
<defs>
<filter id="alpha" filterUnits="objectBoundingBox" x="0%" y="0%" width="100%" height="100%">
  <feColorMatrix type="matrix" in="SourceGraphic" values="0 0 0 0 1 0 0 0 0 1 0 0 0 0 1 0 0 0 1 0"/>
</filter>
<mask id="mask0">
  <g filter="url(#alpha)">
<rect x="0" y="0" width="300" height="200" style="fill:rgb(0%,0%,0%);fill-opacity:0.2;stroke:none;"/>
  </g>
</mask>
<clipPath id="clip1">
  <rect x="0" y="0" width="300" height="201"/>
</clipPath>
<g id="surface5" clip-path="url(#clip1)">
<path style=" stroke:none;fill-rule:nonzero;fill:rgb(0%,0%,0%);fill-opacity:1;" d="M 206.488281 97.339844 L 206.054688 81.007812 L 204.90625 73.757812 L 202.066406 80.941406 Z M 206.488281 97.339844 "/>
</g>
</defs>
<g id="surface1">
<path style=" stroke:none;fill-rule:nonzero;fill:rgb(89.803922%,89.803922%,89.803922%);fill-opacity:1;" d="M 275.707031 172.523438 C 275.707031 173.65625 274.648438 174.570312 273.347656 174.570312 C 272.042969 174.570312 270.988281 173.65625 270.988281 172.523438 C 270.988281 171.390625 272.042969 170.472656 273.347656 170.472656 C 274.648438 170.472656 275.707031 171.390625 275.707031 172.523438 Z M 275.707031 172.523438 "/>
<path style=" stroke:none;fill-rule:nonzero;fill:rgb(89.803922%,89.803922%,89.803922%);fill-opacity:1;" d="M 279.128906 185.804688 L 279.851562 185.804688 L 279.851562 199.597656 L 279.128906 199.597656 Z M 279.128906 185.804688 "/>
<path style=" stroke:none;fill-rule:nonzero;fill:rgb(89.803922%,89.803922%,89.803922%);fill-opacity:1;" d="M 283.289062 180.691406 C 283.289062 182.515625 281.589844 183.992188 279.488281 183.992188 C 277.390625 183.992188 275.691406 182.515625 275.691406 180.691406 C 275.691406 178.871094 277.390625 177.394531 279.488281 177.394531 C 281.589844 177.394531 283.289062 178.871094 283.289062 180.691406 Z M 283.289062 180.691406 "/>
<path style=" stroke:none;fill-rule:nonzero;fill:rgb(89.803922%,89.803922%,89.803922%);fill-opacity:1;" d="M 279.488281 196.324219 C 279.488281 196.324219 278.945312 186.1875 267.820312 187.367188 "/>
<path style=" stroke:none;fill-rule:nonzero;fill:rgb(100%,72.156863%,72.156863%);fill-opacity:1;" d="M 221.988281 120.832031 C 221.046875 120.339844 220.402344 119.511719 220.234375 118.570312 C 220.0625 117.625 220.382812 116.664062 221.105469 115.945312 L 216.277344 73.882812 L 224.339844 74.347656 L 226.570312 115.765625 C 227.910156 116.925781 228.039062 118.773438 226.871094 120.066406 C 225.703125 121.359375 223.605469 121.6875 221.988281 120.832031 Z M 221.988281 120.832031 "/>
<path style=" stroke:none;fill-rule:nonzero;fill:rgb(18.431373%,18.039216%,25.490196%);fill-opacity:1;" d="M 227.601562 72.324219 L 225.488281 86.273438 L 225.785156 94.820312 L 216.917969 95.523438 L 215.140625 88.414062 L 214.164062 69.59375 C 214.007812 66.648438 216.503906 64.101562 219.878906 63.761719 C 223.386719 63.410156 226.574219 65.5625 227.035156 68.605469 Z M 227.601562 72.324219 "/>
<path style=" stroke:none;fill-rule:nonzero;fill:rgb(89.803922%,89.803922%,89.803922%);fill-opacity:1;" d="M 97.464844 94.109375 L 1.269531 94.109375 C 0.570312 94.109375 0 93.617188 0 93.007812 L 0 1.101562 C 0 0.492188 0.570312 0 1.269531 0 L 97.464844 0 C 98.164062 0 98.734375 0.492188 98.734375 1.101562 L 98.734375 93.007812 C 98.734375 93.617188 98.164062 94.109375 97.464844 94.109375 Z M 97.464844 94.109375 "/>
<path style=" stroke:none;fill-rule:nonzero;fill:rgb(100%,100%,100%);fill-opacity:1;" d="M 46.746094 35.648438 L 12.054688 35.648438 C 11.425781 35.648438 10.914062 35.203125 10.914062 34.65625 L 10.914062 13.941406 C 10.914062 13.394531 11.425781 12.949219 12.054688 12.949219 L 46.746094 12.949219 C 47.375 12.949219 47.886719 13.394531 47.886719 13.941406 L 47.886719 34.65625 C 47.886719 35.203125 47.375 35.648438 46.746094 35.648438 Z M 46.746094 35.648438 "/>
<path style=" stroke:none;fill-rule:nonzero;fill:rgb(100%,100%,100%);fill-opacity:1;" d="M 86.675781 47 L 12.054688 47 C 11.425781 47 10.914062 46.554688 10.914062 46.007812 C 10.914062 45.460938 11.425781 45.015625 12.054688 45.015625 L 86.675781 45.015625 C 87.308594 45.015625 87.820312 45.460938 87.820312 46.007812 C 87.820312 46.554688 87.308594 47 86.675781 47 Z M 86.675781 47 "/>
<path style=" stroke:none;fill-rule:nonzero;fill:rgb(100%,100%,100%);fill-opacity:1;" d="M 68.65625 53.832031 L 12.054688 53.832031 C 11.425781 53.832031 10.914062 53.386719 10.914062 52.839844 C 10.914062 52.292969 11.425781 51.847656 12.054688 51.847656 L 68.65625 51.847656 C 69.289062 51.847656 69.800781 52.292969 69.800781 52.839844 C 69.800781 53.386719 69.289062 53.832031 68.65625 53.832031 Z M 68.65625 53.832031 "/>
<path style=" stroke:none;fill-rule:nonzero;fill:rgb(100%,100%,100%);fill-opacity:1;" d="M 86.421875 21.875 L 53.429688 21.875 C 52.796875 21.875 52.289062 21.429688 52.289062 20.882812 C 52.289062 20.335938 52.796875 19.890625 53.429688 19.890625 L 86.421875 19.890625 C 87.054688 19.890625 87.566406 20.335938 87.566406 20.882812 C 87.566406 21.429688 87.054688 21.875 86.421875 21.875 Z M 86.421875 21.875 "/>
<path style=" stroke:none;fill-rule:nonzero;fill:rgb(100%,100%,100%);fill-opacity:1;" d="M 78.1875 28.707031 L 53.429688 28.707031 C 52.796875 28.707031 52.289062 28.261719 52.289062 27.714844 C 52.289062 27.167969 52.796875 26.722656 53.429688 26.722656 L 78.1875 26.722656 C 78.820312 26.722656 79.328125 27.167969 79.328125 27.714844 C 79.328125 28.261719 78.820312 28.707031 78.1875 28.707031 Z M 78.1875 28.707031 "/>
<path style=" stroke:none;fill-rule:nonzero;fill:rgb(100%,100%,100%);fill-opacity:1;" d="M 86.675781 60.664062 L 12.054688 60.664062 C 11.425781 60.664062 10.914062 60.21875 10.914062 59.671875 C 10.914062 59.125 11.425781 58.679688 12.054688 58.679688 L 86.675781 58.679688 C 87.308594 58.679688 87.820312 59.125 87.820312 59.671875 C 87.820312 60.21875 87.308594 60.664062 86.675781 60.664062 Z M 86.675781 60.664062 "/>
<path style=" stroke:none;fill-rule:nonzero;fill:rgb(100%,100%,100%);fill-opacity:1;" d="M 68.65625 67.496094 L 12.054688 67.496094 C 11.425781 67.496094 10.917969 67.050781 10.917969 66.503906 C 10.917969 65.957031 11.425781 65.515625 12.054688 65.511719 L 68.65625 65.511719 C 69.289062 65.511719 69.800781 65.957031 69.800781 66.503906 C 69.800781 67.050781 69.289062 67.496094 68.65625 67.496094 Z M 68.65625 67.496094 "/>
<path style=" stroke:none;fill-rule:nonzero;fill:rgb(100%,100%,100%);fill-opacity:1;" d="M 86.675781 74.328125 L 12.054688 74.328125 C 11.425781 74.328125 10.917969 73.882812 10.917969 73.335938 C 10.917969 72.789062 11.425781 72.347656 12.054688 72.34375 L 86.675781 72.34375 C 87.308594 72.347656 87.816406 72.789062 87.816406 73.335938 C 87.816406 73.882812 87.308594 74.328125 86.675781 74.328125 Z M 86.675781 74.328125 "/>
<path style=" stroke:none;fill-rule:nonzero;fill:rgb(100%,100%,100%);fill-opacity:1;" d="M 86.675781 81.160156 L 12.054688 81.160156 C 11.425781 81.160156 10.914062 80.71875 10.914062 80.167969 C 10.914062 79.621094 11.425781 79.175781 12.054688 79.175781 L 86.675781 79.175781 C 87.308594 79.175781 87.820312 79.621094 87.820312 80.167969 C 87.820312 80.71875 87.308594 81.160156 86.675781 81.160156 Z M 86.675781 81.160156 "/>
<path style=" stroke:none;fill-rule:nonzero;fill:rgb(100%,100%,100%);fill-opacity:1;" d="M 136.09375 113.230469 L 39.898438 113.230469 C 39.195312 113.230469 38.628906 112.738281 38.628906 112.128906 L 38.628906 20.222656 C 38.628906 19.617188 39.195312 19.121094 39.898438 19.121094 L 136.09375 19.121094 C 136.792969 19.121094 137.359375 19.617188 137.363281 20.222656 L 137.363281 112.128906 C 137.359375 112.738281 136.792969 113.230469 136.09375 113.230469 Z M 136.09375 113.230469 "/>
<path style=" stroke:none;fill-rule:nonzero;fill:rgb(24.705882%,23.921569%,33.72549%);fill-opacity:1;" d="M 136.09375 113.230469 L 39.898438 113.230469 C 39.195312 113.230469 38.628906 112.738281 38.628906 112.128906 L 38.628906 20.222656 C 38.628906 19.617188 39.195312 19.121094 39.898438 19.121094 L 136.09375 19.121094 C 136.792969 19.121094 137.359375 19.617188 137.363281 20.222656 L 137.363281 112.128906 C 137.359375 112.738281 136.792969 113.230469 136.09375 113.230469 Z M 39.898438 19.5625 C 39.476562 19.5625 39.136719 19.859375 39.136719 20.222656 L 39.136719 112.128906 C 39.136719 112.496094 39.476562 112.789062 39.898438 112.789062 L 136.09375 112.789062 C 136.511719 112.789062 136.855469 112.496094 136.855469 112.128906 L 136.855469 20.222656 C 136.855469 19.859375 136.511719 19.5625 136.09375 19.5625 Z M 39.898438 19.5625 "/>
<path style=" stroke:none;fill-rule:nonzero;fill:rgb(97.254902%,57.647059%,30.588235%);fill-opacity:1;" d="M 85.375 55.488281 L 50.683594 55.488281 C 50.054688 55.488281 49.542969 55.042969 49.542969 54.496094 L 49.542969 33.777344 C 49.542969 33.230469 50.054688 32.789062 50.683594 32.785156 L 85.375 32.785156 C 86.003906 32.789062 86.515625 33.230469 86.515625 33.777344 L 86.515625 54.496094 C 86.515625 55.042969 86.003906 55.488281 85.375 55.488281 Z M 85.375 55.488281 "/>
<path style=" stroke:none;fill-rule:nonzero;fill:rgb(80%,80%,80%);fill-opacity:1;" d="M 125.304688 66.839844 L 50.683594 66.839844 C 50.054688 66.839844 49.542969 66.394531 49.542969 65.847656 C 49.542969 65.296875 50.054688 64.855469 50.683594 64.855469 L 125.304688 64.855469 C 125.9375 64.855469 126.449219 65.296875 126.449219 65.847656 C 126.449219 66.394531 125.9375 66.839844 125.304688 66.839844 Z M 125.304688 66.839844 "/>
<path style=" stroke:none;fill-rule:nonzero;fill:rgb(80%,80%,80%);fill-opacity:1;" d="M 107.285156 73.671875 L 50.683594 73.671875 C 50.054688 73.671875 49.542969 73.226562 49.542969 72.679688 C 49.542969 72.128906 50.054688 71.6875 50.683594 71.6875 L 107.285156 71.6875 C 107.914062 71.6875 108.425781 72.128906 108.425781 72.679688 C 108.425781 73.226562 107.914062 73.671875 107.285156 73.671875 Z M 107.285156 73.671875 "/>
<path style=" stroke:none;fill-rule:nonzero;fill:rgb(97.254902%,57.647059%,30.588235%);fill-opacity:1;" d="M 125.050781 41.714844 L 92.054688 41.714844 C 91.425781 41.714844 90.914062 41.269531 90.914062 40.722656 C 90.914062 40.171875 91.425781 39.730469 92.054688 39.730469 L 125.050781 39.730469 C 125.683594 39.730469 126.195312 40.171875 126.195312 40.722656 C 126.195312 41.269531 125.683594 41.714844 125.050781 41.714844 Z M 125.050781 41.714844 "/>
<path style=" stroke:none;fill-rule:nonzero;fill:rgb(97.254902%,57.647059%,30.588235%);fill-opacity:1;" d="M 116.816406 48.546875 L 92.054688 48.546875 C 91.425781 48.542969 90.914062 48.101562 90.914062 47.554688 C 90.914062 47.007812 91.425781 46.5625 92.054688 46.5625 L 116.816406 46.5625 C 117.445312 46.5625 117.957031 47.007812 117.957031 47.554688 C 117.957031 48.101562 117.445312 48.542969 116.816406 48.546875 Z M 116.816406 48.546875 "/>
<path style=" stroke:none;fill-rule:nonzero;fill:rgb(80%,80%,80%);fill-opacity:1;" d="M 125.304688 80.503906 L 50.683594 80.503906 C 50.054688 80.503906 49.542969 80.058594 49.542969 79.511719 C 49.542969 78.964844 50.054688 78.519531 50.683594 78.519531 L 125.304688 78.519531 C 125.9375 78.519531 126.449219 78.964844 126.449219 79.511719 C 126.449219 80.058594 125.9375 80.503906 125.304688 80.503906 Z M 125.304688 80.503906 "/>
<path style=" stroke:none;fill-rule:nonzero;fill:rgb(80%,80%,80%);fill-opacity:1;" d="M 107.285156 87.335938 L 50.683594 87.335938 C 50.054688 87.335938 49.542969 86.890625 49.542969 86.34375 C 49.542969 85.796875 50.054688 85.351562 50.683594 85.351562 L 107.285156 85.351562 C 107.914062 85.351562 108.425781 85.796875 108.425781 86.34375 C 108.425781 86.890625 107.914062 87.335938 107.285156 87.335938 Z M 107.285156 87.335938 "/>
<path style=" stroke:none;fill-rule:nonzero;fill:rgb(80%,80%,80%);fill-opacity:1;" d="M 125.304688 94.167969 L 50.683594 94.167969 C 50.054688 94.167969 49.542969 93.722656 49.542969 93.175781 C 49.542969 92.628906 50.054688 92.183594 50.683594 92.183594 L 125.304688 92.183594 C 125.9375 92.183594 126.449219 92.628906 126.449219 93.175781 C 126.449219 93.722656 125.9375 94.167969 125.304688 94.167969 Z M 125.304688 94.167969 "/>
<path style=" stroke:none;fill-rule:nonzero;fill:rgb(80%,80%,80%);fill-opacity:1;" d="M 125.304688 101 L 50.683594 101 C 50.054688 101 49.542969 100.554688 49.542969 100.007812 C 49.542969 99.460938 50.054688 99.015625 50.683594 99.015625 L 125.304688 99.015625 C 125.9375 99.015625 126.449219 99.460938 126.449219 100.007812 C 126.449219 100.554688 125.9375 101 125.304688 101 Z M 125.304688 101 "/>
<path style=" stroke:none;fill-rule:nonzero;fill:rgb(24.705882%,23.921569%,33.72549%);fill-opacity:1;" d="M 128.929688 12.90625 L 128.570312 15.496094 C 122.851562 8.671875 114.929688 4.511719 105.003906 3.121094 L 107.503906 1.671875 L 107.105469 1.148438 L 103.496094 3.238281 L 106.160156 6.210938 L 106.730469 5.824219 L 104.855469 3.734375 C 114.613281 5.097656 122.398438 9.183594 128.007812 15.890625 L 125.011719 15.382812 L 124.871094 16 L 129.128906 16.71875 L 129.648438 12.980469 Z M 128.929688 12.90625 "/>
<path style=" stroke:none;fill-rule:nonzero;fill:rgb(100%,71.764706%,71.764706%);fill-opacity:1;" d="M 193.652344 195.039062 L 188.277344 195.039062 L 185.71875 177.027344 L 193.652344 177.027344 Z M 193.652344 195.039062 "/>
<path style=" stroke:none;fill-rule:nonzero;fill:rgb(18.431373%,18.039216%,25.490196%);fill-opacity:1;" d="M 195.023438 199.566406 L 177.683594 199.566406 L 177.683594 199.375 C 177.683594 196.136719 180.707031 193.515625 184.433594 193.515625 L 195.023438 193.515625 Z M 195.023438 199.566406 "/>
<path style=" stroke:none;fill-rule:nonzero;fill:rgb(100%,71.764706%,71.764706%);fill-opacity:1;" d="M 238.058594 195.039062 L 232.679688 195.039062 L 230.121094 177.027344 L 238.058594 177.027344 Z M 238.058594 195.039062 "/>
<path style=" stroke:none;fill-rule:nonzero;fill:rgb(18.431373%,18.039216%,25.490196%);fill-opacity:1;" d="M 239.429688 199.566406 L 222.089844 199.566406 L 222.089844 199.375 C 222.089844 196.136719 225.109375 193.515625 228.839844 193.515625 L 239.429688 193.515625 Z M 239.429688 199.566406 "/>
<path style=" stroke:none;fill-rule:nonzero;fill:rgb(100%,72.156863%,72.156863%);fill-opacity:1;" d="M 228.488281 44.664062 C 229.980469 50.101562 226.113281 55.5625 219.847656 56.855469 C 213.582031 58.152344 207.296875 54.792969 205.804688 49.355469 C 204.3125 43.914062 208.179688 38.457031 214.445312 37.160156 C 220.707031 35.863281 226.996094 39.222656 228.488281 44.664062 Z M 228.488281 44.664062 "/>
<path style=" stroke:none;fill-rule:nonzero;fill:rgb(18.431373%,18.039216%,25.490196%);fill-opacity:1;" d="M 215.640625 61.242188 L 223.730469 62.046875 C 227.722656 66.960938 228.746094 73.246094 226.484375 78.929688 L 220.378906 94.265625 C 220.378906 94.265625 228.855469 109.019531 228.855469 122.714844 C 228.855469 136.414062 244.992188 185.308594 244.992188 185.308594 L 222.273438 187.367188 L 212.363281 135.28125 L 198.699219 187.15625 L 183.105469 184.953125 L 191.695312 116.9375 L 197.371094 94.550781 L 197.613281 83.632812 C 197.613281 83.632812 195.199219 75.441406 201.238281 70.195312 L 208.613281 61.273438 Z M 215.640625 61.242188 "/>
<path style=" stroke:none;fill-rule:nonzero;fill:rgb(100%,72.156863%,72.156863%);fill-opacity:1;" d="M 208.574219 122.53125 C 207.578125 121.945312 206.933594 121.003906 206.808594 119.964844 C 206.6875 118.925781 207.101562 117.890625 207.941406 117.140625 L 205.542969 70.871094 L 214.328125 71.796875 L 213.933594 117.226562 C 215.320312 118.566406 215.335938 120.59375 213.96875 121.945312 C 212.601562 123.300781 210.285156 123.550781 208.574219 122.53125 Z M 208.574219 122.53125 "/>
<path style=" stroke:none;fill-rule:nonzero;fill:rgb(18.431373%,18.039216%,25.490196%);fill-opacity:1;" d="M 218.039062 69.753906 L 214.773438 84.902344 L 214.507812 94.269531 L 204.761719 94.582031 L 203.304688 86.714844 L 203.519531 66.070312 C 203.554688 62.839844 206.460938 60.183594 210.171875 59.984375 C 214.035156 59.777344 217.375 62.300781 217.671875 65.652344 Z M 218.039062 69.753906 "/>
<path style=" stroke:none;fill-rule:nonzero;fill:rgb(18.431373%,18.039216%,25.490196%);fill-opacity:1;" d="M 203.554688 43.394531 L 220.6875 43.394531 L 220.6875 36.910156 C 216.925781 35.609375 213.246094 34.507812 211.023438 36.910156 C 206.898438 36.910156 203.554688 39.8125 203.554688 43.394531 Z M 203.554688 43.394531 "/>
<path style=" stroke:none;fill-rule:nonzero;fill:rgb(18.431373%,18.039216%,25.490196%);fill-opacity:1;" d="M 221.636719 35.765625 C 231.878906 35.765625 234.746094 46.910156 234.746094 53.199219 C 234.746094 56.707031 232.917969 57.964844 230.046875 58.386719 L 229.035156 53.691406 L 226.660156 58.589844 C 225.855469 58.59375 225.007812 58.578125 224.128906 58.566406 L 223.324219 57.125 L 221.527344 58.539062 C 214.339844 58.546875 208.527344 59.457031 208.527344 53.199219 C 208.527344 46.910156 211.042969 35.765625 221.636719 35.765625 Z M 221.636719 35.765625 "/>
<use xlink:href="#surface5" mask="url(#mask0)"/>
<path style=" stroke:none;fill-rule:nonzero;fill:rgb(79.607843%,79.607843%,79.607843%);fill-opacity:1;" d="M 299.476562 199.910156 L 161.929688 199.910156 C 161.730469 199.910156 161.570312 199.769531 161.570312 199.597656 C 161.570312 199.425781 161.730469 199.285156 161.929688 199.285156 L 299.476562 199.285156 C 299.675781 199.285156 299.835938 199.425781 299.835938 199.597656 C 299.835938 199.769531 299.675781 199.910156 299.476562 199.910156 Z M 299.476562 199.910156 "/>
</g>
</svg>
